<svg id="Layer_1" data-name="Layer 1" xmlns="http://www.w3.org/2000/svg" viewBox="0 0 1280 1024">
<defs>
<style>
.cls-1,
.cls-2{fill:#2c3845; background:white;}
.cls-1.cursor{
    fill:white;
}
.cls-1.star{
    fill: mediumseagreen;
    animation: bg 4s infinite;
}
.cursor{
    animation: move 4s infinite;
}
@keyframes bg{
    0%{fill:white;}
    74%{fill:white;}
    75%{fill: mediumseagreen;}
}
@keyframes move{
    0%{transform:translate(0px,0px)}
    75%{transform:translate(-180px,-60px)}
    100%{transform:translate(0,0)}
}
</style>
</defs>
<title>
how-to-animation</title>
<polygon class="cls-1 star" points="586 591.21 462.32 656.23 485.94 518.51 385.88 420.98 524.16 400.88 586 275.58 647.84 400.88 786.12 420.98 686.06 518.51 709.68 656.23 586 591.21"/>
<path class="cls-2 star" d="M586,286.88l56.19,113.86,2.33,4.71,5.2.76,125.66,18.26L684.45,513.1l-3.76,3.67.89,5.18L703,647.09,590.65,588,586,585.56,581.35,588,469,647.09,490.42,522l.89-5.18-3.76-3.67-90.93-88.63,125.66-18.26,5.2-.76,2.33-4.71L586,286.88m0-22.6-65.16,132L375.13,417.49,480.57,520.26,455.68,665.37,586,596.86l130.32,68.51L691.43,520.26,796.87,417.49,651.16,396.31,586,264.28Z"/>
<polygon class="cls-1 cursor" points="871.72 741.44 819.12 798.37 821.03 588.06 976.81 726.89 904.75 731.87 939.83 818.65 908.37 830.14 871.72 741.44"/>
<path class="cls-2 cursor" d="M825.93,599.13,964.61,722.72l-53.33,3.69-13.74,1,5.16,12.77,30.56,75.6-22.1,8.07-31.83-77-6-14.45-10.61,11.48-38.5,41.68,1.69-186.34M816.13,577,814,811.28l56.09-60.7,35.49,85.9,40.82-14.91L912,736.38l77-5.32L816.13,577Z"/>
</svg>