<svg id="Layer_1" data-name="Layer 1" xmlns="http://www.w3.org/2000/svg" xmlns:xlink="http://www.w3.org/1999/xlink" viewBox="0 0 1280 1024">
<defs>
<style>
.cls-1,
.cls-3{fill:none; animation: movecaret 4s linear infinite}
.cls-2{fill:#fff;}
.cls-2,
.cls-3{stroke:#2c3845;stroke-miterlimit:10;stroke-width:10px;}
.cls-4{clip-path:url(#clip-path);}
.cls-1{
    animation: noclip 4s linear infinite;
}
@keyframes noclip{
    0%{width:0}
    45%{width:100%}
    75%{width:0}
}
@keyframes movecaret{
    0%{transform:translateX(0)}
    15%{transform:translateX(30%)}
    65%{transform:translateX(30%)}
    75%{transform:translateX(0)}
}
</style>
<clipPath id="clip-path"><rect class="cls-1" x="268" y="446.7" width="52" height="131.3"/></clipPath>
</defs>
<title>how-to-animation</title>
<rect class="cls-2" x="268" y="446.7" width="745" height="131.3"/>
<line class="cls-3" x1="319.63" y1="471.78" x2="319.63" y2="545.54"/>
<g class="cls-4"><path d="M377.16,513.86c-.45-8.46-1-18.63-.9-26.19H376c-2.07,7.11-4.59,14.67-7.65,23l-10.71,29.42h-5.94l-9.81-28.88c-2.88-8.55-5.31-16.38-7-23.58h-.18c-.18,7.56-.63,17.73-1.17,26.82l-1.62,26h-7.47l4.23-60.65h10L349,509.18c2.52,7.47,4.59,14.12,6.12,20.43h.27c1.53-6.12,3.69-12.78,6.39-20.43l10.8-29.34h10l3.78,60.65h-7.65Z"/>
<path d="M399.21,510.53c0-5.13-.09-9.54-.36-13.59h6.93l.27,8.55h.36c2-5.85,6.75-9.54,12.06-9.54a8.57,8.57,0,0,1,2.25.27v7.47a11.9,11.9,0,0,0-2.7-.27c-5.58,0-9.54,4.23-10.62,10.17a22.29,22.29,0,0,0-.36,3.69v23.21h-7.83Z"/>
<path d="M457.8,521.42l-6.3,19.07h-8.1L464,479.84h9.45l20.69,60.65h-8.36l-6.48-19.07Zm19.89-6.12-5.94-17.46c-1.35-4-2.25-7.56-3.15-11.07h-.18c-.9,3.6-1.89,7.29-3.06,11l-5.94,17.55Z"/>
<path d="M538.17,528.62c0,4.5.09,8.45.36,11.87h-7l-.45-7.11h-.18a16.39,16.39,0,0,1-14.4,8.1c-6.84,0-15-3.77-15-19.07V496.94h7.92v24.12c0,8.27,2.52,13.86,9.72,13.86a11.15,11.15,0,0,0,11.16-11.25V496.94h7.92Z"/>
<path d="M550.23,532.39a20.76,20.76,0,0,0,10.44,3.15c5.76,0,8.46-2.87,8.46-6.48,0-3.77-2.25-5.85-8.1-8-7.83-2.79-11.52-7.11-11.52-12.33,0-7,5.67-12.78,15-12.78a21.74,21.74,0,0,1,10.71,2.7l-2,5.76a17,17,0,0,0-8.91-2.52c-4.68,0-7.29,2.7-7.29,5.94,0,3.6,2.61,5.22,8.28,7.38,7.56,2.88,11.43,6.66,11.43,13.14,0,7.64-5.94,13-16.29,13a24.84,24.84,0,0,1-12.24-3Z"/>
<path d="M596.49,484.43v12.51h11.34v6H596.49v23.49c0,5.4,1.53,8.46,5.94,8.46a18.07,18.07,0,0,0,4.59-.54l.36,5.93a19.17,19.17,0,0,1-7,1.08c-3.69,0-6.66-1.17-8.55-3.33-2.25-2.34-3.06-6.2-3.06-11.34V503H582v-6h6.75V486.5Z"/>
<path d="M625.56,484.7c.09,2.7-1.89,4.86-5,4.86a4.71,4.71,0,0,1-4.77-4.86,4.83,4.83,0,0,1,5-4.95A4.7,4.7,0,0,1,625.56,484.7Zm-8.82,55.79V496.94h7.92v43.55Z"/>
<path d="M637.79,508.73c0-4.5-.08-8.19-.35-11.79h7l.45,7.2h.17a16,16,0,0,1,14.4-8.19c6,0,15.39,3.6,15.39,18.54v26H667v-25.1c0-7-2.61-12.87-10.07-12.87a11.26,11.26,0,0,0-10.63,8.1,11.39,11.39,0,0,0-.54,3.69v26.18h-7.92Z"/>
</g>
</svg>