<?xml version="1.0" encoding="utf-8"?>
<!-- Generator: Adobe Illustrator 23.1.0, SVG Export Plug-In . SVG Version: 6.00 Build 0)  -->
<svg version="1.1" id="Layer_1" xmlns="http://www.w3.org/2000/svg" xmlns:xlink="http://www.w3.org/1999/xlink" x="0px" y="0px"
	 viewBox="0 0 1280 596" style="enable-background:new 0 0 1280 596;" xml:space="preserve">
<style>
.cls-1,
.cls-2{fill:#2c3845; background:white;}
.cls-1.cursor{
    fill:white;
}
.cls-1.star{
    fill: mediumseagreen;
    animation: bg 4s infinite;
}
.cursor{
    animation: move 4s infinite;
}
@keyframes bg{
    0%{fill:white;}
    74%{fill:white;}
    75%{fill: mediumseagreen;}
}
@keyframes move{
    0%{transform:translate(0px,0px)}
    75%{transform:translate(-180px,-60px)}
    100%{transform:translate(0,0)}
}
</style>
<title>how-to-animation</title>
<polygon class="cls-1 star" points="586,339.2 462.3,404.2 485.9,266.5 385.9,169 524.2,148.9 586,23.6 647.8,148.9 786.1,169 686.1,266.5 
	709.7,404.2 "/>
<path class="cls-2 star" d="M586,34.9l56.2,113.9l2.3,4.7l5.2,0.8l125.7,18.3l-90.9,88.6l-3.8,3.7l0.9,5.2L703,395.1L590.7,336l-4.7-2.4
	l-4.7,2.4L469,395.1L490.4,270l0.9-5.2l-3.8-3.7l-90.9-88.6l125.7-18.3l5.2-0.8l2.3-4.7L586,34.9 M586,12.3l-65.2,132l-145.7,21.2
	l105.4,102.8l-24.9,145.1L586,344.9l130.3,68.5l-24.9-145.1l105.4-102.8l-145.7-21.2L586,12.3z"/>
<polygon class="cls-1 cursor" points="871.7,489.4 819.1,546.4 821,336.1 976.8,474.9 904.8,479.9 939.8,566.7 908.4,578.1 "/>
<path class="cls-2 cursor" d="M825.9,347.1l138.7,123.6l-53.3,3.7l-13.7,1l5.2,12.8l30.6,75.6l-22.1,8.1l-31.8-77l-6-14.5l-10.6,11.5
	l-38.5,41.7L825.9,347.1 M816.1,325L814,559.3l56.1-60.7l35.5,85.9l40.8-14.9L912,484.4l77-5.3L816.1,325z"/>
</svg>
