<?xml version="1.0" encoding="utf-8"?>
<!-- Generator: Adobe Illustrator 23.1.0, SVG Export Plug-In . SVG Version: 6.00 Build 0)  -->
<svg version="1.1" id="Layer_1" xmlns="http://www.w3.org/2000/svg" xmlns:xlink="http://www.w3.org/1999/xlink" x="0px" y="0px"
	 viewBox="0 0 1280 803.3" style="enable-background:new 0 0 1280 803.3;" xml:space="preserve">
<style>
.cls-1{
    fill:mediumseagreen;
    stroke:#2c3845;
    stroke-miterlimit:10;
    stroke-width:10px;
}
.b1{
    animation: pop 4s infinite;
}
.b2{
    animation: pop1 4s infinite;
}

@keyframes pop{
    0%{transform:translateY(100px); opacity:0;}
    30%{transform:translateY(100px); opacity:0}
    60%{transform:translateY(0px); opacity:1}
    100%{transform:translateY(0px); opacity:0}
}
@keyframes pop1{
    0%{transform:translateY(100px); opacity:0}
    30%{transform:translateY(0); opacity:1}
    60%{transform:translateY(0); opacity:1}
    100%{transform:translateY(0); opacity:0}
}
</style>
<title>how-to-animation</title>
<path class="cls-1 b1" d="M1172.1,12.9H772.9c-20.9,0-37.9,17-37.9,37.9v0v204.7c0,20.9,17,37.9,37.9,37.9l0,0h272.6
	c9.5,84,115.3,84.9,115.3,84.9c-35.7-22.2-31.8-60.8-24.7-84.9h36c20.9,0,37.9-17,37.9-37.9l0,0V50.8
	C1210,29.8,1193.1,12.9,1172.1,12.9C1172.1,12.9,1172.1,12.9,1172.1,12.9z"/>
<path class="cls-1 b2" d="M189.4,325.3h399.2c20.9,0,37.9,17,37.9,37.9c0,0,0,0,0,0V568c0,20.9-17,37.9-37.9,37.9H316
	c-9.5,84-115.3,85-115.3,85c35.7-22.2,31.8-60.8,24.7-84.9h-36c-20.9,0-37.9-17-37.9-37.9l0,0V363.2
	C151.5,342.3,168.4,325.3,189.4,325.3C189.4,325.3,189.4,325.3,189.4,325.3z"/>
</svg>
